HIERARCHY
ROOT Hips
{
  OFFSET -0.557177 88.3909 1.45027
  CHANNELS 6 Xposition Yposition Zposition Zrotation Xrotation Yrotation
  JOINT Spine
  {
    OFFSET 0 10.1816 0.1315
    CHANNELS 3 Zrotation Xrotation Yrotation
    JOINT Spine1
    {
      OFFSET 0 10.0835 -1.0008
      CHANNELS 3 Zrotation Xrotation Yrotation
      JOINT Spine2
      {
        OFFSET 0 9.1 -1.3734
        CHANNELS 3 Zrotation Xrotation Yrotation
        JOINT Neck
        {
          OFFSET 0 16.6717 -2.5162
          CHANNELS 3 Zrotation Xrotation Yrotation
          JOINT Head
          {
            OFFSET 0 9.6179 1.685
            CHANNELS 3 Zrotation Xrotation Yrotation
            End Site
            {
              OFFSET 0 0 0
            }
          }
        }
        JOINT LeftShoulder
        {
          OFFSET 4.5704 10.946 -2.628
          CHANNELS 3 Zrotation Xrotation Yrotation
          JOINT LeftArm
          {
            OFFSET 10.5924 -0.5246 -2.2321
            CHANNELS 3 Zrotation Xrotation Yrotation
            JOINT LeftForeArm
            {
              OFFSET 27.8415 -0.0001 0
              CHANNELS 3 Zrotation Xrotation Yrotation
              JOINT LeftHand
              {
                OFFSET 28.3288 0 0
                CHANNELS 3 Zrotation Xrotation Yrotation
                End Site
                {
                  OFFSET 0 0 0
                }
              }
            }
          }
        }
        JOINT RightShoulder
        {
          OFFSET -4.57 10.9462 -2.628
          CHANNELS 3 Zrotation Xrotation Yrotation
          JOINT RightArm
          {
            OFFSET -10.5928 -0.5248 -2.2321
            CHANNELS 3 Zrotation Xrotation Yrotation
            JOINT RightForeArm
            {
              OFFSET -27.8415 0 0
              CHANNELS 3 Zrotation Xrotation Yrotation
              JOINT RightHand
              {
                OFFSET -28.3288 0 0.0001
                CHANNELS 3 Zrotation Xrotation Yrotation
                End Site
                {
                  OFFSET 0 0 0
                }
              }
            }
          }
        }
      }
    }
  }
  JOINT LeftUpLeg
  {
    OFFSET 8.2078 -6.7517 -1.5996
    CHANNELS 3 Zrotation Xrotation Yrotation
    JOINT LeftLeg
    {
      OFFSET 0 -44.3705 0.2846
      CHANNELS 3 Zrotation Xrotation Yrotation
      JOINT LeftFoot
      {
        OFFSET 0 -44.4279 -2.9822
        CHANNELS 3 Zrotation Xrotation Yrotation
        JOINT LeftToeBase
        {
          OFFSET 0 -8.7287 10.7106
          CHANNELS 3 Zrotation Xrotation Yrotation
          End Site
          {
            OFFSET 0 0 0
          }
        }
      }
    }
  }
  JOINT RightUpLeg
  {
    OFFSET -8.2078 -6.7517 -1.5996
    CHANNELS 3 Zrotation Xrotation Yrotation
    JOINT RightLeg
    {
      OFFSET 0 -44.3705 0.2862
      CHANNELS 3 Zrotation Xrotation Yrotation
      JOINT RightFoot
      {
        OFFSET 0 -44.4277 -2.9838
        CHANNELS 3 Zrotation Xrotation Yrotation
        JOINT RightToeBase
        {
          OFFSET 0 -8.7287 10.7106
          CHANNELS 3 Zrotation Xrotation Yrotation
          End Site
          {
            OFFSET 0 0 0
          }
        }
      }
    }
  }
}
MOTION
Frames:	12
Frame Time:	0.0333333
-0.557177 88.3909 1.45027 -9.4137 10.9713 -5.41047 19.1323 3.03929 3.00729 -4.46225 3.12725 0.919144 -4.43324 3.18023 0.937793 -0.340029 16.1807 0.326321 -2.52868 -27.5994 -1.65745 5.62891 0.61375 -4.41262 -79.4806 32.3375 35.605 -0.000212578 -1.8365e-06 -49.9608 3.49642 -24.0627 -29.4139 9.88312 0.382495 -2.70001 65.8766 6.44787 45.1643 -1.26228e-05 -2.53428e-06 73.6344 8.13017 -12.9434 8.14863 -8.20692 -59.4349 -10.6742 -179.052 35.2303 -172.138 -18.3798 18.6424 3.82668 4.06188e-06 9.20758 1.69371e-06 0.931983 -17.3745 -9.02931 20.5262 57.8375 -18.6894 -7.05125 -10.7029 11.816 -1.14134 -37.514 -0.683026 
-0.802353 95.9473 22.014 1.18944 6.63063 -19.4422 6.21391 6.37972 20.3442 -6.71041 2.23068 2.96067 -6.79577 2.45353 2.72438 -3.82724 13.7818 -0.254752 -4.83199 -20.0456 -10.7206 5.08576 0.646711 0.134982 -70.7625 25.7119 33.1234 -0.000213891 5.68814e-06 -29.3848 -1.96945 1.83831 -22.3778 3.36144 -0.521581 0.334983 53.0633 -5.8323 55.478 -1.89079e-05 4.92545e-06 76.6605 22.4376 -3.32262 4.05267 -132.868 -84.2821 -152.887 -177.853 43.2098 175.811 -26.6013 39.3313 12.3686 2.732e-06 11.8332 -8.07756e-06 -13.0404 7.32346 -10.0688 5.97351 28.1282 -4.59592 -10.208 8.98613 26.6068 0.384148 -40.3237 0.244038 
-2.64772 104.701 37.3256 11.5584 1.30788 -23.7525 -9.37507 6.59492 33.7434 -7.94786 3.29677 4.55078 -7.98935 3.66043 4.30923 -7.70206 8.99139 -0.711548 -2.65753 -8.93423 -19.1355 2.55375 0.327246 5.70852 -51.5146 17.2921 29.6994 -0.000202634 1.62279e-05 -20.2208 -2.70826 31.754 -15.9336 -2.06419 -1.19266 0.797374 35.5437 -21.8856 59.033 -9.63613e-07 4.80758e-07 75.0308 30.4458 -1.6062 0.319644 -145.727 -83.5804 -170.466 178.757 68.3582 -177.495 -11.6606 31.1932 5.51663 1.4087e-05 10.0683 5.14978e-06 -23.4252 10.625 -16.3823 0.805493 20.9525 -1.02228 -12.8651 19.1855 32.0172 5.95983e-06 -23.3665 -3.93308e-06 
-3.89874 111.587 51.4399 17.9588 -1.04088 -21.5006 -20.7141 7.8866 38.3137 -6.71449 4.01798 5.00622 -6.63461 4.29674 4.9277 -10.9701 2.12881 -0.888472 6.62557 1.60883 -23.9715 -0.124988 -0.376672 9.9542 -26.9559 5.00765 31.3198 -0.000201218 -1.15254e-05 -27.1763 0.924273 45.6138 -6.74327 -4.83409 -0.718519 -0.0592831 6.87485 -35.1488 43.6653 -1.02228e-05 -2.05046e-06 61.5985 22.1116 -9.25183 5.45437 -137.254 -86.376 -158.156 88.3544 86.382 -80.2509 5.5429 10.7577 -0.418879 2.64504e-05 11.2873 -3.08009e-06 -24.6002 11.5398 -19.5153 -2.54348 19.0347 2.82786 -3.85553 29.2469 19.9899 3.38592e-07 -12.4379 -4.54455e-06 
-4.18097 117.215 66.1859 18.9185 -2.07353 -17.2629 -24.7598 12.5794 37.3618 -5.05842 3.44816 4.77424 -4.99206 3.60702 4.74789 -11.8057 -3.0544 -1.1962 14.4537 7.01418 -24.4093 -2.09109 -0.861815 12.024 -8.54336 -5.86129 36.8601 -0.000204549 -6.17991e-06 -34.1328 2.59544 44.5277 8.08115 -6.26634 -0.0763722 -0.341363 -20.4571 -32.1297 22.4351 -3.86213e-07 4.29947e-06 45.3979 10.925 -21.5372 11.3205 -139.695 -87.6124 -154.908 18.931 72.911 -7.43067 14.2828 1.67977 0.926178 1.04386e-05 9.60877 -8.30607e-06 -17.8326 15.9985 -18.2803 -5.00329 17.2432 4.91507 12.143 38.0486 5.13306 4.114e-07 -3.62643 -2.6847e-06 
-3.88059 122.154 81.6341 15.4584 -3.22237 -13.0091 -21.9661 17.7454 34.3213 -3.76299 3.2132 4.34683 -3.7419 3.29129 4.31575 -10.1991 -3.78235 -1.6054 16.7947 6.81539 -23.822 -2.42795 -0.968686 12.6346 1.18496 -12.7694 40.754 -0.000208068 2.21031e-06 -35.302 9.32999 34.3779 16.9828 -5.96285 0.039843 -1.55161 -26.381 -27.5415 17.8326 -1.87657e-06 1.42095e-06 30.5183 9.30556 -28.3227 10.5264 174.793 -84.6625 164.859 8.03261 65.6253 2.88021 16.6446 6.70299 3.9053 -9.31117e-06 5.59246 4.09958e-06 -9.58634 20.037 -16.6968 -4.50236 25.0059 5.71439 18.561 40.2218 6.80204 2.01756e-06 -1.03463 -7.56072e-07 
-3.51904 126.61 97.7538 11.7922 -5.23894 -9.11829 -19.3688 21.4239 31.9212 -2.81267 3.39815 3.97786 -2.80807 3.43566 3.95218 -7.97188 -2.65956 -1.97384 17.7397 6.65758 -23.6743 -2.52452 -0.958024 12.4627 6.7019 -18.2667 39.1594 -0.000208098 1.62508e-06 -33.2643 19.0123 25.2287 18.2349 -4.78803 0.0648933 -1.92795 -19.9511 -26.7836 19.3488 9.56738e-06 -8.92957e-07 19.5015 9.36464 -28.446 7.12459 150.946 -83.3255 147.338 -1.12424 61.5997 11.3291 14.3955 12.1549 4.61293 -2.42714e-06 4.2187 2.28611e-06 -4.07483 19.586 -16.378 -0.572938 41.4024 5.14222 16.447 33.8689 9.93651 -4.46191e-06 -1.26794 1.33196e-05 
-3.1119 130.673 113.998 9.9551 -5.86532 -6.43773 -18.3201 21.9197 31.2898 -2.27539 3.53564 3.81951 -2.26906 3.55795 3.80449 -6.44259 -0.324888 -2.28035 19.2372 6.71929 -25.1076 -2.18042 -0.781245 11.0279 8.68723 -23.0821 33.2002 -0.00020671 -3.61331e-07 -30.4501 26.2665 20.0848 12.2073 -3.76884 0.0853322 -2.06306 -9.32995 -23.5752 18.0542 -4.71958e-06 2.74964e-06 16.9133 5.45618 -25.9803 1.41769 136.115 -83.9922 137.282 -5.27115 58.0678 14.6198 10.6601 16.3022 2.413 5.5346e-06 4.66032 -2.63377e-06 -2.77896 14.2998 -17.7197 4.24159 58.9311 2.07448 16.772 24.7607 0.174226 1.43687e-06 -2.77167 7.54483e-06 
-2.41735 133.636 129.261 9.30465 -5.62335 -6.0568 -16.9489 22.1528 31.7983 -2.24303 3.23916 3.86987 -2.2531 3.27647 3.83436 -5.78932 1.68021 -2.49751 20.2653 6.43504 -26.7902 -1.64763 -0.579129 9.34931 6.97021 -24.5771 25.6252 -0.000207101 2.98352e-08 -29.415 27.3922 18.0341 5.31239 -2.93796 0.0646712 -2.62908 -0.942921 -16.9289 15.1761 -2.11753e-06 1.32755e-06 15.7216 1.94342 -23.6433 -2.29407 113.674 -85.7649 116.802 -5.81954 53.5116 14.893 9.88361 21.5357 0.456575 -8.61458e-08 4.048 3.64454e-06 -6.69952 4.93487 -19.212 10.4997 77.5457 -10.7225 11.9036 17.5039 -2.43845 2.22564e-05 -0.994299 2.44208e-05 
-1.56904 135.268 144.167 8.98238 -6.54258 -7.51077 -15.772 24.7178 32.5113 -2.14105 2.91886 3.91026 -2.18424 2.97077 3.84905 -5.52921 2.40985 -2.60913 19.8698 5.91155 -27.1592 -1.24973 -0.447841 8.19141 4.33667 -22.2952 19.0225 -0.000202916 -1.17273e-06 -28.8371 26.3938 16.3577 2.2448 -2.54225 0.019492 -3.26285 5.06491 -10.127 12.8079 -9.41575e-07 -2.48109e-06 14.8401 -0.0540136 -20.904 -4.49278 48.8975 -85.2714 51.7725 -4.75104 50.1033 13.37 11.6118 25.1755 0.128288 6.82486e-07 3.63867 2.71355e-06 -12.0733 -4.94604 -19.2897 170.07 86.2174 -171.213 4.6492 13.819 -0.824045 4.33352e-06 1.22956 -2.8874e-06 
-0.768336 135.497 158.847 8.11948 -8.90989 -8.62288 -14.7449 29.8744 31.5877 -1.69396 2.46472 3.66512 -1.78841 2.51374 3.58914 -5.07754 2.48222 -2.60211 18.1454 5.35386 -25.826 -0.849978 -0.365685 7.47859 4.0582 -19.1625 15.0919 -0.000204295 8.67751e-07 -28.4034 26.7543 12.5952 1.99761 -2.51623 -0.00055002 -3.51033 9.97112 -5.1663 11.7552 8.45294e-07 -3.31953e-07 13.8555 -1.30291 -17.4635 -6.50288 18.2116 -79.2604 20.213 -2.76286 47.4325 12.0301 13.6401 28.5137 -0.191365 4.61608e-06 1.32081 3.75071e-06 -15.2737 -14.3169 -17.4838 -177.893 74.3371 -176.865 -1.83976 11.3668 0.220457 -4.32877e-06 1.22925 -4.44775e-08 
-0.0604154 134.679 173.401 6.43014 -11.358 -7.29988 -12.4546 35.6676 27.4931 -0.774254 1.80127 3.02818 -0.908109 1.82354 2.98071 -4.11145 2.91515 -2.47686 15.5413 4.8136 -23.1804 -0.148638 -0.289375 6.87562 7.28594 -16.5862 12.6757 -0.000207417 2.44427e-07 -27.2149 28.5414 6.5808 2.37294 -2.50991 0.000376322 -3.49891 14.7831 -1.05701 10.8668 -1.75931e-06 -6.55875e-06 13.0225 -2.50712 -14.1876 -9.0301 8.33059 -71.4613 10.04 -1.65071 44.4387 10.7597 13.8058 29.0584 -0.415856 -1.25485e-06 -0.474638 -5.30875e-06 -15.9338 -22.9071 -15.7081 -177.696 66.9974 -173.187 -4.39426 6.7807 0.726683 -1.20816e-06 1.15529 6.10079e-06 
